<svg width="90" height="121" viewBox="0 0 90 121" fill="none" xmlns="http://www.w3.org/2000/svg">
<path d="M13.3714 92.885L8.35294 106.57H5.01841L0 92.885H2.94125L6.70599 103.767L10.4504 92.885H13.3714Z" fill="white"/>
<path d="M15.2048 93.954C15.0528 93.804 14.932 93.6254 14.8497 93.4284C14.7673 93.2314 14.7249 93.02 14.7249 92.8065C14.7249 92.5929 14.7673 92.3815 14.8497 92.1845C14.932 91.9876 15.0528 91.8089 15.2048 91.6589C15.5364 91.3617 15.966 91.1973 16.4114 91.1973C16.8567 91.1973 17.2864 91.3617 17.618 91.6589C17.77 91.8089 17.8907 91.9876 17.9731 92.1845C18.0554 92.3815 18.0979 92.5929 18.0979 92.8065C18.0979 93.02 18.0554 93.2314 17.9731 93.4284C17.8907 93.6254 17.77 93.804 17.618 93.954C17.2858 94.2501 16.8564 94.4137 16.4114 94.4137C15.9664 94.4137 15.5369 94.2501 15.2048 93.954ZM17.7638 95.708V106.57H15.0183V95.708H17.7638Z" fill="white"/>
<path d="M23.6665 97.9624V103.217C23.6531 103.361 23.6696 103.505 23.7151 103.642C23.7605 103.778 23.8339 103.904 23.9305 104.011C24.1077 104.175 24.405 104.257 24.8223 104.257H26.0981V106.57H24.3718C22.0589 106.57 20.9018 105.446 20.9006 103.199V97.9624H19.6082V95.708H20.9006V93.0215H23.6702V95.708H26.1018V97.9624H23.6665Z" fill="white"/>
<path d="M28.0297 98.1785C28.4292 97.371 29.0471 96.6917 29.8133 96.2177C30.5727 95.7576 31.4458 95.5196 32.3336 95.5309C33.0725 95.5146 33.8037 95.6835 34.4606 96.022C35.0337 96.3193 35.5328 96.7414 35.9211 97.2572V95.7081H38.6906V106.57H35.9211V104.982C35.5421 105.514 35.0414 105.948 34.4606 106.247C33.798 106.591 33.0597 106.763 32.3133 106.748C31.4297 106.756 30.5622 106.511 29.8133 106.042C29.0475 105.555 28.4305 104.866 28.0297 104.052C27.5768 103.134 27.3514 102.121 27.3724 101.098C27.3531 100.086 27.5786 99.0844 28.0297 98.1785ZM35.5297 99.4193C35.286 98.9617 34.9188 98.5817 34.4699 98.3226C34.0353 98.0704 33.5414 97.9385 33.0389 97.9404C32.5341 97.9344 32.0375 98.0675 31.6033 98.3251C31.1692 98.5827 30.8143 98.9549 30.5777 99.4008C30.2988 99.9214 30.1601 100.505 30.1752 101.096C30.162 101.693 30.3005 102.284 30.5777 102.813C30.8216 103.278 31.1881 103.667 31.6375 103.939C32.0595 104.197 32.5445 104.333 33.0389 104.332C33.5414 104.334 34.0353 104.202 34.4699 103.95C34.9191 103.691 35.2863 103.31 35.5297 102.852C35.7873 102.316 35.921 101.73 35.921 101.135C35.921 100.541 35.7873 99.9547 35.5297 99.4193Z" fill="white"/>
<path d="M43.5225 106.217C42.7992 105.923 42.1716 105.434 41.7094 104.805C41.2575 104.17 41.0171 103.409 41.0226 102.63H43.9638C43.9705 102.881 44.0268 103.128 44.1295 103.356C44.2322 103.585 44.3792 103.791 44.562 103.963C44.9215 104.289 45.4138 104.452 46.0391 104.452C46.6798 104.452 47.182 104.299 47.5494 103.993C47.7282 103.848 47.8712 103.664 47.9672 103.454C48.0633 103.245 48.1099 103.017 48.1033 102.787C48.1107 102.604 48.0819 102.421 48.0185 102.25C47.9551 102.078 47.8585 101.92 47.7341 101.786C47.4749 101.516 47.1598 101.305 46.8109 101.169C46.3069 100.975 45.7929 100.808 45.271 100.669C44.532 100.461 43.8083 100.202 43.1052 99.8936C42.5403 99.6314 42.0483 99.2345 41.6725 98.7378C41.2737 98.2208 41.0742 97.5309 41.0742 96.668C41.0571 95.9165 41.2696 95.1777 41.6836 94.5503C42.1065 93.9344 42.6992 93.4546 43.3896 93.1692C44.1834 92.8362 45.0381 92.6727 45.8988 92.6891C47.3106 92.6891 48.4579 93.0319 49.3404 93.7175C50.223 94.4032 50.7098 95.3608 50.8009 96.5905H47.7692C47.7597 96.3645 47.7015 96.1432 47.5986 95.9418C47.4957 95.7404 47.3504 95.5636 47.1728 95.4236C46.75 95.1008 46.227 94.9374 45.6957 94.962C45.2291 94.9369 44.7694 95.0834 44.4032 95.3737C44.239 95.5247 44.1106 95.7105 44.0275 95.9175C43.9444 96.1245 43.9088 96.3476 43.9232 96.5702C43.9188 96.7394 43.9494 96.9077 44.0129 97.0646C44.0765 97.2216 44.1716 97.3637 44.2925 97.4823C44.5489 97.7344 44.8517 97.9344 45.1843 98.0713C45.5437 98.2202 46.0502 98.3931 46.7038 98.5901C47.4461 98.7992 48.1724 99.0614 48.877 99.3748C49.4482 99.6446 49.9459 100.048 50.3282 100.551C50.7332 101.074 50.9357 101.76 50.9357 102.61C50.9391 103.329 50.7422 104.036 50.367 104.65C49.9658 105.297 49.3897 105.816 48.7053 106.149C47.8926 106.538 46.9989 106.728 46.0982 106.703C45.2156 106.718 44.3392 106.552 43.5225 106.217Z" fill="white"/>
<path d="M53.2638 98.1785C53.6631 97.3702 54.2818 96.6907 55.0493 96.2177C55.808 95.7576 56.6805 95.5197 57.5677 95.5309C58.3066 95.5146 59.0378 95.6835 59.6947 96.022C60.2684 96.3193 60.7681 96.7413 61.157 97.2572V95.7081H63.9266V106.57H61.157V104.982C60.7778 105.515 60.2763 105.949 59.6947 106.247C59.0344 106.59 58.2987 106.762 57.5548 106.748C56.6712 106.756 55.8037 106.511 55.0548 106.042C54.288 105.556 53.6702 104.867 53.2694 104.052C52.8179 103.134 52.5932 102.121 52.6139 101.098C52.5928 100.087 52.8157 99.0852 53.2638 98.1785ZM60.7638 99.4193C60.5206 98.962 60.1541 98.582 59.7058 98.3226C59.271 98.0711 58.7772 97.9398 58.2749 97.9422C57.7701 97.9362 57.2734 98.0693 56.8392 98.3269C56.4051 98.5846 56.0503 98.9567 55.8137 99.4027C55.5348 99.9232 55.3961 100.507 55.4112 101.098C55.398 101.695 55.5365 102.286 55.8137 102.815C56.0575 103.279 56.4232 103.669 56.8716 103.941C57.2941 104.199 57.7798 104.335 58.2749 104.334C58.7773 104.336 59.2712 104.204 59.7058 103.952C60.1543 103.692 60.5209 103.312 60.7638 102.854C61.0225 102.318 61.157 101.732 61.157 101.137C61.157 100.543 61.0225 99.9562 60.7638 99.4211V99.4193Z" fill="white"/>
<path d="M72.9995 96.0127C73.5784 96.3016 74.077 96.7291 74.4507 97.2572V95.7081H77.2203V106.65C77.2365 107.584 77.0282 108.508 76.6128 109.345C76.204 110.143 75.5671 110.801 74.7831 111.236C73.9719 111.701 72.9915 111.933 71.8418 111.932C70.3007 111.932 69.036 111.573 68.0475 110.854C67.57 110.516 67.1724 110.078 66.8827 109.569C66.593 109.061 66.4184 108.496 66.371 107.913H69.0981C69.2414 108.412 69.5721 108.838 70.0213 109.1C70.5471 109.406 71.1484 109.559 71.7569 109.541C72.1117 109.556 72.4659 109.501 72.7991 109.378C73.1322 109.255 73.4376 109.067 73.6974 108.825C74.1898 108.348 74.436 107.626 74.436 106.659V104.958C74.0565 105.493 73.5561 105.93 72.9755 106.234C72.3206 106.582 71.588 106.757 70.8466 106.744C69.9603 106.751 69.0902 106.506 68.3374 106.038C67.5666 105.554 66.9453 104.865 66.5428 104.048C66.0913 103.13 65.8666 102.117 65.8873 101.094C65.8676 100.082 66.0924 99.0797 66.5428 98.173C66.9429 97.3653 67.5614 96.686 68.3282 96.2122C69.0869 95.7523 69.9594 95.5143 70.8466 95.5253C71.5934 95.5087 72.3327 95.6761 72.9995 96.0127ZM74.0575 99.4193C73.815 98.9614 73.4483 98.5813 72.9995 98.3225C72.5647 98.071 72.0708 97.9398 71.5686 97.9422C71.0638 97.9362 70.5671 98.0693 70.1329 98.3269C69.6988 98.5845 69.344 98.9567 69.1074 99.4027C68.8285 99.9232 68.6898 100.507 68.7049 101.098C68.6917 101.695 68.8301 102.286 69.1074 102.815C69.3512 103.279 69.7169 103.669 70.1653 103.941C70.5879 104.199 71.0735 104.335 71.5686 104.334C72.071 104.336 72.5649 104.204 72.9995 103.952C73.4484 103.693 73.8151 103.312 74.0575 102.854C74.3162 102.318 74.4507 101.732 74.4507 101.137C74.4507 100.543 74.3162 99.9562 74.0575 99.4211V99.4193Z" fill="white"/>
<path d="M89.9216 101.964H81.9823C82.0072 102.662 82.3024 103.324 82.8057 103.81C83.2912 104.255 83.9308 104.494 84.5893 104.476C85.6085 104.476 86.3341 104.038 86.7662 103.162H89.7204C89.4166 104.197 88.7832 105.105 87.9165 105.747C87.0265 106.42 85.9347 106.757 84.641 106.757C83.6587 106.772 82.6891 106.532 81.8272 106.061C81.0062 105.601 80.3356 104.913 79.8959 104.081C79.418 103.176 79.1785 102.164 79.1998 101.14C79.1788 100.114 79.4142 99.0983 79.8848 98.1859C80.3209 97.3591 80.9889 96.6776 81.8069 96.2251C82.6749 95.7773 83.6369 95.5419 84.6137 95.5384C85.5904 95.5348 86.5541 95.7632 87.4254 96.2048C88.2295 96.6377 88.8903 97.2953 89.3271 98.0973C89.7854 98.9581 90.0167 99.9214 89.9992 100.896C90.0024 101.254 89.9765 101.611 89.9216 101.964ZM87.1521 100.117C87.1579 99.7958 87.0923 99.477 86.9601 99.1839C86.828 98.8909 86.6324 98.6307 86.3877 98.4223C85.8791 97.9933 85.2304 97.7666 84.5653 97.7853C83.9356 97.7666 83.3222 97.9869 82.8482 98.402C82.3655 98.8515 82.0624 99.461 81.9952 100.117H87.1521Z" fill="white"/>
<path d="M45.184 0L6.9939 24.8483L7.43517 25.7549C7.58104 26.0522 9.96469 30.6422 20.0643 33.9121C17.8579 61.3583 27.8024 68.308 27.8024 68.308C27.8024 68.308 26.0853 63.9081 26.1924 56.2882C25.2009 51.5984 25.1178 47.0785 25.356 43.4135V43.5981C25.6403 38.9195 28.5742 36.846 34.2388 36.6614C37.5623 36.9845 41.2938 37.171 45.4702 37.171C49.5802 37.171 53.2434 36.9863 56.5078 36.6761C61.2677 36.9069 64.0151 38.5446 64.7998 42.0417C65.1488 45.919 65.1894 50.991 64.0612 56.2826C64.1683 63.9026 62.4512 68.3025 62.4512 68.3025C62.4512 68.3025 72.3606 61.3731 70.2059 34.0321C80.4496 30.7345 82.5286 25.9894 82.6523 25.6847L83.0049 24.8151L45.184 0ZM45.4721 34.8962C31.0391 34.8962 22.2079 32.6307 16.9162 30.2416C32.2964 33.6887 42.1339 32.7655 47.5843 31.9827C32.7746 29.5695 41.628 10.576 45.1637 2.72708L80.0341 25.5961C78.2118 27.965 70.7229 34.8944 45.4647 34.8944L45.4721 34.8962Z" fill="white"/>
<path d="M52.8469 42.3666C50.0294 42.3666 50.3211 43.8234 50.3211 43.8234H55.7605C55.7605 43.8234 55.6626 42.3666 52.8469 42.3666Z" fill="white"/>
<path d="M34.645 43.8271H40.0844C40.0844 43.8271 40.3835 42.3666 37.5586 42.3666C34.7336 42.3666 34.645 43.8271 34.645 43.8271Z" fill="white"/>
<path d="M42.3484 56.916C42.3484 56.916 42.4462 58.7827 45.2619 58.7827C48.0776 58.7827 47.7878 56.916 47.7878 56.916H42.3484Z" fill="white"/>
<path d="M25.3503 43.6038C25.3355 43.8549 25.3245 44.1115 25.3245 44.3774L25.3503 43.6038Z" fill="white"/>
<path d="M40.8837 39.442C39.5912 39.1188 35.8413 38.9047 33.1585 38.9047C30.4757 38.9047 29.1944 39.6137 28.0127 41.4803C30.8025 40.0845 42.3922 40.836 42.3922 40.836C42.3922 40.836 42.1724 39.7632 40.8837 39.442Z" fill="white"/>
<path d="M56.8736 38.9047C54.1909 38.9047 50.4354 39.1188 49.1484 39.442C47.8615 39.7651 47.6455 40.836 47.6455 40.836C47.6455 40.836 59.2351 40.0845 62.025 41.4803C60.8378 39.6137 59.5564 38.9047 56.8736 38.9047Z" fill="white"/>
<path d="M59.905 52.1062C57.874 50.4075 54.9457 49.8259 52.3719 49.7428C49.2977 49.645 48.513 51.1017 45.1932 51.3251H45.184C43.153 51.3251 41.4229 50.1232 39.4603 49.8222C34.9034 49.1243 28.1439 51.4212 28.347 56.9307C28.5556 62.6027 30.2229 68.1935 31.916 73.572C33.142 77.4678 35.1656 81.0903 38.3986 83.6734C40.5362 85.3672 43.0484 86.5246 45.725 87.0485C45.9188 87.0855 49.2109 87.3957 49.2017 87.3477C49.2017 87.3477 47.8612 81.07 54.5136 77.85C60.5199 74.9456 61.3193 65.9539 61.7735 60.1618C62.0062 57.1892 62.4604 54.2553 59.905 52.1062ZM45.2837 59.9366C44.5451 64.4952 34.2203 64.2515 31.1276 64.0761C31.2883 59.8738 32.4404 55.6438 36.3879 55.4296C42.7412 55.0862 44.0799 55.9115 45.184 55.8136C46.2918 55.9115 47.6304 55.0862 53.9819 55.4296C58.0014 55.6475 59.2828 59.9089 59.5671 64.065C56.672 64.2201 46.2087 64.4639 45.2837 59.9366Z" fill="white"/>
<path d="M14.8023 113.222C15.47 113.216 16.1345 113.313 16.7724 113.51V115.667H15.4984L15.4116 114.417C15.2014 114.394 14.9899 114.383 14.7783 114.386C13.9862 114.386 13.3696 114.995 13.3696 115.972C13.3696 116.948 13.9862 117.565 14.9796 117.565C15.5449 117.563 16.0977 117.399 16.573 117.092L16.8518 118.2C16.2513 118.563 15.5609 118.749 14.8596 118.738C13.1849 118.738 12.0088 117.8 12.0088 115.968C12.0088 114.136 13.2015 113.222 14.8023 113.222Z" fill="white"/>
<path d="M17.2209 112.99H18.9916V117.707H19.479V118.66H17.2209V117.707H17.7102V113.945H17.2209V112.99Z" fill="white"/>
<path d="M21.4087 114.439C21.6245 114.428 21.8399 114.466 22.0387 114.551C22.2374 114.636 22.4141 114.765 22.5553 114.929V114.513H23.8348V117.707H24.3075V118.66H22.5553V118.252C22.408 118.409 22.2287 118.532 22.0296 118.614C21.8306 118.695 21.6163 118.733 21.4013 118.725C20.384 118.725 19.6399 117.971 19.6399 116.57C19.6399 115.169 20.384 114.439 21.4087 114.439ZM20.9527 116.601C20.9527 117.266 21.3127 117.635 21.802 117.635C21.9693 117.637 22.1327 117.585 22.2682 117.487C22.4038 117.389 22.5044 117.25 22.5553 117.091V116.129C22.5085 115.966 22.4092 115.824 22.2729 115.724C22.1367 115.623 21.9711 115.571 21.802 115.575C21.3127 115.577 20.9527 115.937 20.9527 116.601Z" fill="white"/>
<path d="M26.3346 114.513V115.265C26.4779 115.015 26.6841 114.808 26.9326 114.663C27.1811 114.518 27.4632 114.441 27.7508 114.439C27.8067 114.435 27.8629 114.435 27.9188 114.439V115.68C27.832 115.68 27.7674 115.663 27.6788 115.663C26.9402 115.663 26.4214 116.129 26.3346 117.05V117.698H26.8073V118.651H24.5806V117.698H25.0588V115.457H24.5861V114.513H26.3346Z" fill="white"/>
<path d="M28.1516 114.513H29.9223V117.708H30.4134V118.66H28.1516V117.708H28.6409V115.457H28.1516V114.513ZM28.3676 113.463C28.3676 113.023 28.7055 112.815 29.241 112.815C29.7764 112.815 30.1143 113.023 30.1143 113.463C30.1143 113.902 29.7616 114.113 29.241 114.113C28.7203 114.113 28.3676 113.911 28.3676 113.463Z" fill="white"/>
<path d="M30.9674 114.513V113.328H32.2599V114.513H33.3252V115.457H32.2599V116.906C32.2599 117.386 32.4445 117.547 32.7085 117.547C32.9103 117.536 33.1082 117.487 33.292 117.403L33.436 118.531C33.0993 118.664 32.7418 118.737 32.3799 118.747C31.5066 118.747 30.9785 118.18 30.9785 116.875V115.457H30.3618V114.513H30.9674Z" fill="white"/>
<path d="M33.5984 115.457V114.513H35.814V115.457H35.4448L36.1094 117.539L36.7834 115.457H36.4141V114.513H38.6297V115.457H38.0518L36.8203 118.941C36.5877 119.644 36.211 120.134 35.3783 120.134C35.0287 120.13 34.6822 120.068 34.3535 119.949L34.553 118.972C34.768 119.057 34.9958 119.106 35.2269 119.116C35.332 119.119 35.4356 119.091 35.524 119.033C35.6124 118.976 35.6813 118.894 35.7217 118.797L35.7623 118.653H35.3303L34.1929 115.449L33.5984 115.457Z" fill="white"/>
<path d="M40.9485 113.294H43.238V114.391H42.7653V117.563H43.238V118.66H40.9485V117.563H41.4212V114.391H40.9485V113.294Z" fill="white"/>
<path d="M43.5908 117.707H44.0635V115.466H43.5908V114.513H45.3449V114.929C45.477 114.771 45.6424 114.645 45.8292 114.559C46.0159 114.473 46.2194 114.43 46.425 114.432C47.3943 114.432 47.9316 115.025 47.9316 116.177V117.707H48.4043V118.66H46.6502V116.498C46.6502 115.76 46.449 115.466 46.0022 115.466C45.6901 115.466 45.4723 115.697 45.3449 115.985V117.707H45.8175V118.66H43.5908V117.707Z" fill="white"/>
<path d="M53.5687 113.222C54.2363 113.216 54.9009 113.313 55.5388 113.51V115.667H54.2648L54.178 114.417C53.9677 114.394 53.7562 114.383 53.5447 114.386C52.7526 114.386 52.1359 114.995 52.1359 115.972C52.1359 116.948 52.7526 117.565 53.7459 117.565C54.3113 117.563 54.8641 117.399 55.3393 117.092L55.6182 118.2C55.017 118.563 54.326 118.749 53.6241 118.738C51.9513 118.738 50.7751 117.8 50.7751 115.968C50.7751 114.136 51.9679 113.222 53.5687 113.222Z" fill="white"/>
<path d="M55.9873 117.707H56.46V113.945H55.9873V112.99H57.7395V114.929C57.8716 114.771 58.037 114.645 58.2238 114.559C58.4106 114.473 58.6141 114.43 58.8196 114.432C59.789 114.432 60.3263 115.025 60.3263 116.177V117.707H60.7971V118.66H59.0449V116.498C59.0449 115.76 58.8436 115.466 58.395 115.466C58.0829 115.466 57.8669 115.697 57.7395 115.985V117.707H58.2122V118.66H55.9873V117.707Z" fill="white"/>
<path d="M63.0939 118.732C61.9012 118.732 60.9651 117.979 60.9651 116.578C60.9651 115.176 61.9012 114.439 63.0939 114.439C64.2867 114.439 65.2246 115.178 65.2246 116.578C65.2246 117.977 64.283 118.732 63.0939 118.732ZM63.0939 115.538C62.6139 115.538 62.2779 115.907 62.2779 116.563C62.2779 117.218 62.6139 117.595 63.0939 117.595C63.574 117.595 63.91 117.226 63.91 116.563C63.91 115.9 63.5703 115.538 63.0939 115.538Z" fill="white"/>
<path d="M65.3815 114.513H67.1559V117.708H67.6452V118.66H65.3815V117.708H65.8634V115.457H65.376L65.3815 114.513ZM65.5975 113.463C65.5975 113.023 65.9336 112.815 66.469 112.815C67.0045 112.815 67.3424 113.023 67.3424 113.463C67.3424 113.902 66.9897 114.113 66.469 114.113C65.9484 114.113 65.5975 113.911 65.5975 113.463Z" fill="white"/>
<path d="M71.5153 114.72V116.395H70.3706L70.3059 115.586C70.2222 115.561 70.1362 115.545 70.0493 115.538C69.512 115.562 69.1132 115.922 69.1132 116.563C69.1132 117.235 69.5379 117.595 70.1047 117.595C70.5557 117.582 70.9921 117.431 71.3547 117.163L71.6501 118.195C71.1526 118.549 70.5563 118.737 69.9459 118.732C68.6719 118.732 67.7986 117.979 67.7986 116.578C67.7986 115.176 68.6719 114.439 69.9219 114.439C70.465 114.443 71.0038 114.538 71.5153 114.72Z" fill="white"/>
<path d="M73.9653 114.439C75.2855 114.439 75.9261 115.265 75.9021 116.482C75.9021 116.602 75.9021 116.81 75.8874 116.93H73.2046C73.3246 117.371 73.6847 117.626 74.27 117.626C74.6815 117.612 75.0762 117.46 75.3907 117.194L75.6861 118.195C75.2001 118.567 74.5991 118.757 73.9875 118.732C72.7061 118.732 71.8328 117.979 71.8328 116.578C71.8328 115.176 72.7393 114.439 73.9653 114.439ZM74.8294 116.258C74.833 116.151 74.8138 116.045 74.773 115.946C74.7323 115.847 74.6709 115.758 74.593 115.684C74.5151 115.611 74.4224 115.555 74.3212 115.52C74.2199 115.485 74.1125 115.473 74.0059 115.483C73.5573 115.483 73.2674 115.778 73.1732 116.267L74.8294 116.258Z" fill="white"/>
<path d="M77.1448 117.314C77.5695 117.314 77.8649 117.539 77.8649 117.988C77.8649 118.437 77.5695 118.66 77.1448 118.66C76.7201 118.66 76.4062 118.444 76.4062 117.988C76.4062 117.532 76.6961 117.314 77.1448 117.314Z" fill="white"/>
</svg>
