<svg width="608" height="608" viewBox="0 0 608 608" fill="none" xmlns="http://www.w3.org/2000/svg">
<circle cx="304" cy="304" r="304" fill="#829D70" fill-opacity="0.3"/>
<circle cx="304" cy="304" r="258.217" fill="#829D70" fill-opacity="0.3"/>
<circle cx="304" cy="304" r="201.446" fill="#829D70"/>
<path d="M304.663 169.55L186.983 246.118L188.343 248.912C188.792 249.828 196.137 263.972 227.258 274.048C220.459 358.621 251.103 380.036 251.103 380.036C251.103 380.036 245.811 366.478 246.141 342.998C243.086 328.546 242.83 314.619 243.564 303.325V303.894C244.44 289.477 253.481 283.088 270.936 282.519C281.177 283.515 292.675 284.089 305.545 284.089C318.209 284.089 329.497 283.52 339.556 282.565C354.223 283.276 362.689 288.322 365.107 299.098C366.182 311.046 366.308 326.675 362.831 342.981C363.161 366.461 357.87 380.019 357.87 380.019C357.87 380.019 388.405 358.666 381.766 274.417C413.331 264.256 419.737 249.634 420.118 248.696L421.205 246.016L304.663 169.55ZM305.55 277.08C261.076 277.08 233.864 270.099 217.558 262.737C264.951 273.359 295.264 270.514 312.059 268.102C266.424 260.666 293.705 202.139 304.6 177.953L412.051 248.422C406.435 255.722 383.359 277.074 305.528 277.074L305.55 277.08Z" fill="white"/>
<path d="M328.275 300.103C319.593 300.103 320.492 304.592 320.492 304.592H337.253C337.253 304.592 336.951 300.103 328.275 300.103Z" fill="white"/>
<path d="M272.188 304.603H288.949C288.949 304.603 289.871 300.103 281.166 300.103C272.462 300.103 272.188 304.603 272.188 304.603Z" fill="white"/>
<path d="M295.925 344.937C295.925 344.937 296.227 350.689 304.903 350.689C313.58 350.689 312.686 344.937 312.686 344.937H295.925Z" fill="white"/>
<path d="M243.547 303.915C243.501 304.689 243.467 305.48 243.467 306.299L243.547 303.915Z" fill="white"/>
<path d="M291.414 291.092C287.431 290.096 275.876 289.436 267.609 289.436C259.343 289.436 255.394 291.621 251.753 297.373C260.35 293.071 296.062 295.387 296.062 295.387C296.062 295.387 295.385 292.081 291.414 291.092Z" fill="white"/>
<path d="M340.684 289.436C332.418 289.436 320.845 290.096 316.88 291.092C312.914 292.087 312.249 295.387 312.249 295.387C312.249 295.387 347.961 293.071 356.558 297.373C352.899 291.621 348.951 289.436 340.684 289.436Z" fill="white"/>
<path d="M350.025 330.115C343.766 324.881 334.743 323.089 326.812 322.833C317.339 322.531 314.921 327.02 304.692 327.708H304.663C298.405 327.708 293.074 324.005 287.026 323.077C272.984 320.927 252.156 328.004 252.781 344.982C253.424 362.459 258.562 379.687 263.779 396.26C267.557 408.265 273.792 419.428 283.755 427.387C290.341 432.606 298.083 436.173 306.33 437.787C306.928 437.901 317.072 438.857 317.043 438.709C317.043 438.709 312.913 419.365 333.412 409.443C351.919 400.493 354.383 372.786 355.783 354.938C356.499 345.778 357.899 336.738 350.025 330.115ZM304.97 354.244C302.695 368.291 270.879 367.54 261.35 367C261.845 354.05 265.395 341.016 277.559 340.356C297.136 339.298 301.261 341.841 304.663 341.539C308.077 341.841 312.202 339.298 331.773 340.356C344.159 341.027 348.108 354.159 348.984 366.965C340.063 367.443 307.821 368.194 304.97 354.244Z" fill="white"/>
</svg>
